<?xml version="1.0" standalone="no"?>
<!DOCTYPE svg PUBLIC "-//W3C//DTD SVG 20010904//EN"
 "http://www.w3.org/TR/2001/REC-SVG-20010904/DTD/svg10.dtd">
<svg version="1.0" xmlns="http://www.w3.org/2000/svg"
 width="512.000000pt" height="512.000000pt" viewBox="0 0 512.000000 512.000000"
 preserveAspectRatio="xMidYMid meet">

<g transform="translate(0.000000,512.000000) scale(0.100000,-0.100000)"
fill="#000000" stroke="none">
<path d="M3253 3876 c-64 -24 -79 -33 -123 -73 l-25 -22 -1085 -4 c-1184 -4
-1123 -1 -1291 -62 -400 -144 -667 -479 -719 -900 -20 -154 5 -382 61 -560
185 -595 747 -1024 1346 -1029 130 -1 131 -1 175 29 55 38 98 119 98 184 -1
83 -55 167 -130 199 -19 8 -75 18 -125 22 -121 10 -191 38 -263 105 -147 136
-171 343 -60 510 l20 30 388 -3 388 -3 32 28 c25 22 33 39 37 76 l6 47 175 0
176 0 47 -49 c26 -28 67 -60 91 -73 42 -23 48 -23 420 -26 257 -2 384 1 398 8
30 16 50 53 54 96 l4 39 803 5 804 5 35 22 c94 58 121 116 128 269 8 202 -34
336 -140 442 -86 86 -142 107 -696 260 l-503 138 -24 58 c-46 113 -103 173
-212 223 -84 39 -203 43 -290 9z m215 -200 c30 -16 74 -61 89 -91 6 -11 14
-42 17 -68 14 -97 -6 -88 605 -257 299 -82 563 -159 588 -171 l45 -22 -53 -53
-53 -53 -55 53 c-88 83 -128 82 -216 -5 l-51 -49 -49 50 c-86 87 -131 87 -220
-1 l-51 -49 -49 50 c-86 87 -131 87 -220 -1 l-51 -49 -49 50 c-61 62 -100 77
-148 56 -25 -10 -38 -24 -47 -50 -17 -51 5 -88 109 -189 118 -113 147 -117
239 -32 l57 53 57 -53 c85 -79 121 -79 206 0 l57 53 57 -53 c85 -79 121 -79
207 1 l58 53 43 -44 c54 -55 100 -78 136 -69 15 4 63 41 106 82 l78 75 0 -111
c0 -100 -2 -112 -19 -122 -13 -7 -285 -10 -818 -9 l-798 0 -40 52 c-69 88
-180 151 -307 172 -34 5 -38 9 -38 35 0 43 -35 130 -70 172 -17 20 -58 50 -92
67 -155 78 -337 6 -398 -157 -17 -44 -20 -78 -20 -197 l0 -145 -197 0 -198 0
-63 69 c-73 81 -161 131 -266 151 -65 12 -66 13 -66 44 0 98 -88 216 -184 249
-177 61 -354 -41 -386 -221 -18 -97 -9 -415 13 -463 16 -35 15 -37 -9 -70 -76
-101 -116 -225 -117 -359 0 -164 58 -305 174 -421 105 -106 276 -178 422 -179
28 0 47 -4 47 -11 0 -19 -192 -3 -305 25 -386 96 -699 360 -859 725 -92 210
-129 472 -92 663 75 388 389 674 783 713 l73 7 -15 -36 c-13 -31 -13 -40 -1
-70 17 -40 42 -56 87 -56 26 0 46 14 113 80 81 79 83 80 134 80 l51 0 -15 -27
c-21 -42 -17 -71 15 -104 22 -22 39 -29 66 -29 33 0 47 9 119 80 79 77 84 80
129 80 44 0 60 -11 37 -25 -5 -3 -10 -23 -10 -44 0 -53 38 -91 92 -91 35 0 47
8 122 80 79 76 85 80 129 80 l46 0 -15 -35 c-12 -30 -12 -39 0 -69 17 -40 42
-56 87 -56 26 0 46 14 113 80 80 77 84 80 130 80 42 0 47 -2 41 -17 -20 -46
-17 -79 10 -111 22 -26 34 -32 67 -32 37 0 47 7 122 80 l82 80 183 0 182 0 48
45 c26 24 60 51 77 60 36 19 126 20 162 1z m-2204 -710 c42 -17 56 -55 56
-147 0 -120 20 -139 160 -149 134 -9 198 -42 255 -132 l17 -28 -280 0 -281 0
-20 26 c-19 25 -21 40 -21 203 0 146 3 181 16 199 13 19 39 36 62 41 1 1 18
-5 36 -13z m1363 4 c41 -15 51 -40 55 -140 6 -132 35 -160 168 -160 77 0 118
-12 177 -51 35 -25 83 -83 83 -103 0 -3 -122 -6 -272 -6 -350 0 -318 -23 -318
229 1 198 4 211 51 230 13 5 24 10 25 10 1 1 15 -4 31 -9z"/>
<path d="M3353 3618 c-48 -13 -83 -61 -83 -115 0 -38 5 -50 34 -79 29 -29 41
-34 80 -34 105 0 160 125 86 198 -32 33 -70 42 -117 30z"/>
</g>
</svg>
