<?xml version="1.0" encoding="UTF-8"?>
<svg width="100" height="100" viewBox="0 0 100 100" xmlns="http://www.w3.org/2000/svg">
  <title>Schulte Table</title>
  <g fill="none" stroke="#000" stroke-width="2">
    <rect x="10" y="10" width="80" height="80" fill="#f5f5f5" />
    <line x1="10" y1="30" x2="90" y2="30" />
    <line x1="10" y1="50" x2="90" y2="50" />
    <line x1="10" y1="70" x2="90" y2="70" />
    <line x1="30" y1="10" x2="30" y2="90" />
    <line x1="50" y1="10" x2="50" y2="90" />
    <line x1="70" y1="10" x2="70" y2="90" />
    
    <text x="20" y="25" font-family="Arial" font-size="12" fill="#e91e63">1</text>
    <text x="40" y="25" font-family="Arial" font-size="12" fill="#9c27b0">8</text>
    <text x="60" y="25" font-family="Arial" font-size="12" fill="#3f51b5">3</text>
    <text x="80" y="25" font-family="Arial" font-size="12" fill="#2196f3">5</text>
    
    <text x="20" y="45" font-family="Arial" font-size="12" fill="#009688">6</text>
    <text x="40" y="45" font-family="Arial" font-size="12" fill="#4caf50">2</text>
    <text x="60" y="45" font-family="Arial" font-size="12" fill="#8bc34a">9</text>
    <text x="80" y="45" font-family="Arial" font-size="12" fill="#cddc39">4</text>
    
    <text x="20" y="65" font-family="Arial" font-size="12" fill="#ffc107">7</text>
    <text x="40" y="65" font-family="Arial" font-size="12" fill="#ff9800">5</text>
    <text x="60" y="65" font-family="Arial" font-size="12" fill="#ff5722">1</text>
    <text x="80" y="65" font-family="Arial" font-size="12" fill="#795548">8</text>
    
    <text x="20" y="85" font-family="Arial" font-size="12" fill="#607d8b">3</text>
    <text x="40" y="85" font-family="Arial" font-size="12" fill="#9e9e9e">6</text>
    <text x="60" y="85" font-family="Arial" font-size="12" fill="#000000">2</text>
    <text x="80" y="85" font-family="Arial" font-size="12" fill="#f44336">7</text>
  </g>
</svg>
