<?xml version="1.0" standalone="no"?>
<!DOCTYPE svg PUBLIC "-//W3C//DTD SVG 20010904//EN"
 "http://www.w3.org/TR/2001/REC-SVG-20010904/DTD/svg10.dtd">
<svg version="1.0" xmlns="http://www.w3.org/2000/svg"
 width="512.000000pt" height="512.000000pt" viewBox="0 0 512.000000 512.000000"
 preserveAspectRatio="xMidYMid meet">

<g transform="translate(0.000000,512.000000) scale(0.100000,-0.100000)"
fill="#000000" stroke="none">
<path d="M2804 5100 c-113 -29 -489 -224 -774 -400 -69 -43 -186 -114 -260
-158 -398 -238 -716 -500 -872 -718 -189 -264 -228 -515 -118 -751 80 -173
211 -302 495 -488 118 -77 174 -122 261 -209 94 -94 117 -124 153 -196 42 -85
71 -192 71 -263 0 -111 -66 -301 -151 -432 -217 -334 -690 -735 -1326 -1124
-57 -35 -114 -76 -127 -92 -63 -75 -35 -207 54 -251 33 -17 110 -18 1178 -18
l1143 0 24 25 c30 29 32 64 6 96 l-19 24 -843 5 -842 5 109 75 c293 200 521
387 729 595 328 327 505 612 566 910 19 94 14 266 -10 360 -72 274 -260 497
-616 730 -244 160 -362 270 -434 405 -60 112 -77 253 -46 375 96 379 651 847
1523 1284 137 69 189 81 342 81 l125 -1 -84 -47 c-242 -137 -528 -351 -644
-483 -82 -92 -158 -215 -190 -307 -42 -118 -43 -242 -5 -349 74 -206 267 -386
603 -559 157 -82 276 -132 545 -229 310 -113 509 -220 693 -373 227 -189 381
-463 413 -735 9 -74 33 -107 80 -107 44 0 74 29 74 74 0 53 -29 193 -61 291
-94 294 -310 554 -619 746 -117 72 -320 168 -475 225 -386 139 -602 238 -780
355 -259 171 -379 357 -346 540 9 54 62 189 74 189 2 0 -2 -23 -9 -52 -66
-253 105 -495 497 -702 162 -86 318 -149 623 -252 466 -158 680 -276 902 -498
127 -128 188 -211 259 -354 119 -236 170 -534 145 -842 -25 -313 -96 -605
-230 -940 -160 -399 -170 -409 -397 -410 -73 0 -133 2 -133 5 0 3 20 37 45 75
198 309 370 689 446 984 33 129 58 287 49 310 -12 32 -37 49 -70 49 -41 0 -67
-27 -75 -76 -60 -399 -246 -840 -546 -1294 l-34 -53 -533 0 -533 0 -24 -25
c-32 -31 -32 -69 0 -101 l25 -24 782 2 c778 3 783 3 830 25 109 50 163 128
277 399 335 797 369 1483 100 2004 -153 297 -421 550 -766 723 -116 59 -236
106 -453 177 -692 228 -1025 450 -1047 697 -20 228 293 521 869 813 75 39 146
82 157 96 14 18 21 41 21 71 0 38 -5 50 -34 79 l-34 34 -329 -1 c-286 0 -337
-2 -399 -19z m-1759 -1349 c-52 -101 -74 -304 -46 -421 55 -224 217 -413 531
-615 155 -100 245 -172 340 -271 236 -245 304 -511 209 -814 -130 -412 -602
-895 -1341 -1372 l-167 -108 -151 0 c-119 0 -150 3 -150 13 0 8 46 42 103 77
298 186 634 424 842 598 141 118 352 336 443 457 97 129 193 315 224 430 27
105 29 272 4 365 -42 156 -157 329 -304 455 -42 37 -155 119 -251 183 -187
124 -309 233 -375 333 -112 170 -115 364 -9 559 51 95 142 216 98 131z"/>
<path d="M2167 4504 c-67 -44 -70 -118 -7 -144 34 -14 55 -8 109 30 35 25 41
36 41 65 0 73 -70 97 -143 49z"/>
<path d="M1843 4233 c-7 -2 -35 -33 -63 -68 -38 -48 -50 -71 -50 -97 0 -44 26
-68 73 -68 33 0 41 7 92 69 40 49 55 77 55 99 0 49 -59 85 -107 65z"/>
<path d="M1622 3763 c-7 -3 -19 -18 -28 -35 -28 -55 0 -206 41 -222 32 -12 65
-6 86 15 20 20 21 28 15 113 -6 81 -9 94 -32 114 -24 21 -54 27 -82 15z"/>
<path d="M1822 3277 c-40 -42 -30 -76 42 -145 69 -67 101 -77 144 -46 16 11
22 25 22 53 0 33 -7 45 -64 99 -73 70 -107 79 -144 39z"/>
<path d="M2253 2975 c-26 -18 -38 -67 -23 -94 13 -25 147 -101 178 -101 30 0
72 42 72 72 0 38 -27 66 -100 103 -77 39 -96 42 -127 20z"/>
<path d="M2720 2730 c-28 -28 -26 -81 3 -107 42 -38 127 -83 156 -83 20 0 36
9 50 26 42 53 25 89 -67 144 -76 45 -112 50 -142 20z"/>
<path d="M3154 2415 c-32 -13 -44 -32 -44 -67 0 -21 66 -117 103 -150 44 -41
117 -6 117 55 0 22 -14 50 -45 92 -54 71 -86 89 -131 70z"/>
<path d="M3346 1928 c-23 -21 -26 -31 -28 -115 -3 -109 10 -133 72 -133 61 0
75 25 75 132 0 86 -1 91 -28 114 -35 30 -59 30 -91 2z"/>
<path d="M3251 1427 c-33 -16 -101 -133 -101 -174 0 -58 58 -91 111 -63 23 13
89 140 89 174 0 50 -55 85 -99 63z"/>
<path d="M2958 993 c-9 -2 -42 -34 -72 -69 -40 -47 -56 -74 -56 -95 0 -39 32
-69 74 -69 29 0 43 9 89 60 31 33 58 69 62 80 10 30 -12 75 -41 89 -26 11 -28
12 -56 4z"/>
<path d="M2530 582 c-49 -43 -58 -86 -25 -122 34 -38 117 -14 163 47 33 45 -6
113 -65 113 -21 0 -44 -12 -73 -38z"/>
</g>
</svg>
