<?xml version="1.0" encoding="UTF-8"?>
<svg xmlns="http://www.w3.org/2000/svg" viewBox="0 0 500 500">
  <circle cx="250" cy="250" r="240" fill="#333" />
  <path d="M250 10c132.5 0 240 107.5 240 240s-107.5 240-240 240S10 382.5 10 250 117.5 10 250 10z" fill="#333" />
  <path fill="#9c27b0" d="M250 20c127 0 230 103 230 230S377 480 250 480 20 377 20 250 123 20 250 20zm0 0c-127 0-230 103-230 230s103 230 230 230 230-103 230-230S377 20 250 20zm0 20v20m0 380v-20m230-200h-20m-420 0h20m35-145l14 14m332 332l-14-14m-332 0l14-14m318-318l-14 14" />
  <path fill="#9c27b0" d="M250 60v40m0 300v-40m190-150h-40m-300 0h40m28-122l28 28m168 168l-28-28m-168 0l28-28m140-140l-28 28M110 110h40v40h-40zm0 240h40v40h-40zm240-240h40v40h-40zm0 240h40v40h-40z" />
  <path fill="#9c27b0" d="M110 110h40v40h-40zm0 240h40v40h-40zm240-240h40v40h-40zm0 240h40v40h-40zM60 190h40v120H60zm340 0h40v120h-40zM190 60h120v40H190zm0 340h120v40H190z" />
  <path fill="#9c27b0" d="M150 150h40v40h-40zm0 160h40v40h-40zm160-160h40v40h-40zm0 160h40v40h-40zm-120-40h40v40h-40zm80-80h40v40h-40zm-80 0h40v40h-40zm80 80h40v40h-40z" />
  <path fill="#9c27b0" d="M170 170h40v40h-40zm0 120h40v40h-40zm120-120h40v40h-40zm0 120h40v40h-40zm-80-60h40v40h-40zm-40-40h40v40h-40zm80 0h40v40h-40zm-40 80h40v40h-40z" />
  <path fill="#9c27b0" d="M190 190h40v40h-40zm0 80h40v40h-40zm80-80h40v40h-40zm0 80h40v40h-40zm-40-40h40v40h-40z" />
  <path fill="#9c27b0" d="M210 210h80v80h-80z" />
  <path fill="#fff" d="M430 250H250V70h40v140h140z" />
  <rect x="78" y="336" width="344" height="128" fill="#ff7043" />
  <path d="M138.5 418.8q-8.4 0-15.4-2.8t-12-8q-5-5.3-7.8-12.8-2.8-7.5-2.8-16.7 0-9 3-16.5t8.3-13q5.3-5.4 12.5-8.4 7.3-3 15.8-3 5.2 0 9.6 1 4.4 1 8 2.6 3.7 1.6 6.5 3.7 2.8 2 4.6 4.3l-9.5 11.3q-3-3.5-7.8-6-4.8-2.6-11.3-2.6-4.7 0-8.7 1.7-4 1.6-7 4.8-3 3-4.7 7.4-1.7 4.3-1.7 9.8 0 5.6 1.7 10 1.7 4.4 4.7 7.5 3 3 7 4.7 4.2 1.6 9 1.6 4 0 7-1 3.2-1 5.6-2.4 2.5-1.5 4.3-3.3 1.8-1.8 3-3.4l9.6 10.2q-2 2.7-5 5.3-3 2.5-7 4.5-4 2-8.7 3.2-4.7 1.2-10 1.2zm83.8-1.5h-19.7l-31.3-79.3h21.5l20 56.5 20.3-56.5h20.7l-31.5 79.3zm62.4 0h-19.4v-79.3h65.4v16.8h-46v15h40v16h-40v31.5zm122.7 1.5q-9.3 0-17-3-7.5-3-13-8.3-5.5-5.4-8.5-12.8-3-7.5-3-16.4 0-9 3-16.5t8.4-13q5.5-5.4 13-8.4 7.7-3 16.8-3 9.3 0 17 3 7.6 3 13 8.3 5.6 5.3 8.7 12.8 3 7.4 3 16.3 0 9-3 16.5-3 7.5-8.5 13-5.5 5.4-13 8.5-7.6 3-16.8 3zm.2-17q5 0 9-1.7 4.3-1.8 7.3-4.8 3-3 4.7-7.3 1.7-4.3 1.7-9.5 0-5-1.6-9.3-1.5-4.3-4.5-7.4-3-3.2-7.2-5-4.2-1.8-9.3-1.8-5 0-9.2 1.7-4 1.8-7 4.8-3 3-4.7 7.3-1.7 4.3-1.7 9.5 0 5 1.6 9.3 1.6 4.3 4.5 7.4 3 3.2 7.2 5 4.2 1.8 9.3 1.8zm94.8 17q-9.2 0-16.8-3-7.5-3-13-8.3-5.5-5.4-8.5-12.8-3-7.5-3-16.4 0-9 3-16.5t8.4-13q5.5-5.4 13-8.4 7.7-3 16.8-3 6.2 0 11.3 1.3 5.2 1.2 9.5 3.4 4.3 2.2 7.7 5.3 3.4 3 5.8 6.6l-14.5 10.8q-3.5-5-9-8-5.4-3.2-12-3.2-5 0-9.2 1.7-4 1.8-7 4.8-3 3-4.7 7.3-1.7 4.3-1.7 9.5 0 5 1.6 9.3 1.6 4.3 4.5 7.4 3 3.2 7.2 5 4.2 1.8 9.3 1.8 6.4 0 11.7-3 5.3-3 9-8.3l14.4 10.3q-2.4 3.8-6 7-3.4 3.3-7.8 5.7-4.4 2.4-9.6 3.8-5.2 1.3-11 1.3z" fill="#333" />
  <path d="M138.5 418.8q-8.4 0-15.4-2.8t-12-8q-5-5.3-7.8-12.8-2.8-7.5-2.8-16.7 0-9 3-16.5t8.3-13q5.3-5.4 12.5-8.4 7.3-3 15.8-3 5.2 0 9.6 1 4.4 1 8 2.6 3.7 1.6 6.5 3.7 2.8 2 4.6 4.3l-9.5 11.3q-3-3.5-7.8-6-4.8-2.6-11.3-2.6-4.7 0-8.7 1.7-4 1.6-7 4.8-3 3-4.7 7.4-1.7 4.3-1.7 9.8 0 5.6 1.7 10 1.7 4.4 4.7 7.5 3 3 7 4.7 4.2 1.6 9 1.6 4 0 7-1 3.2-1 5.6-2.4 2.5-1.5 4.3-3.3 1.8-1.8 3-3.4l9.6 10.2q-2 2.7-5 5.3-3 2.5-7 4.5-4 2-8.7 3.2-4.7 1.2-10 1.2zm83.8-1.5h-19.7l-31.3-79.3h21.5l20 56.5 20.3-56.5h20.7l-31.5 79.3zm62.4 0h-19.4v-79.3h65.4v16.8h-46v15h40v16h-40v31.5zm122.7 1.5q-9.3 0-17-3-7.5-3-13-8.3-5.5-5.4-8.5-12.8-3-7.5-3-16.4 0-9 3-16.5t8.4-13q5.5-5.4 13-8.4 7.7-3 16.8-3 9.3 0 17 3 7.6 3 13 8.3 5.6 5.3 8.7 12.8 3 7.4 3 16.3 0 9-3 16.5-3 7.5-8.5 13-5.5 5.4-13 8.5-7.6 3-16.8 3zm.2-17q5 0 9-1.7 4.3-1.8 7.3-4.8 3-3 4.7-7.3 1.7-4.3 1.7-9.5 0-5-1.6-9.3-1.5-4.3-4.5-7.4-3-3.2-7.2-5-4.2-1.8-9.3-1.8-5 0-9.2 1.7-4 1.8-7 4.8-3 3-4.7 7.3-1.7 4.3-1.7 9.5 0 5 1.6 9.3 1.6 4.3 4.5 7.4 3 3.2 7.2 5 4.2 1.8 9.3 1.8zm94.8 17q-9.2 0-16.8-3-7.5-3-13-8.3-5.5-5.4-8.5-12.8-3-7.5-3-16.4 0-9 3-16.5t8.4-13q5.5-5.4 13-8.4 7.7-3 16.8-3 6.2 0 11.3 1.3 5.2 1.2 9.5 3.4 4.3 2.2 7.7 5.3 3.4 3 5.8 6.6l-14.5 10.8q-3.5-5-9-8-5.4-3.2-12-3.2-5 0-9.2 1.7-4 1.8-7 4.8-3 3-4.7 7.3-1.7 4.3-1.7 9.5 0 5 1.6 9.3 1.6 4.3 4.5 7.4 3 3.2 7.2 5 4.2 1.8 9.3 1.8 6.4 0 11.7-3 5.3-3 9-8.3l14.4 10.3q-2.4 3.8-6 7-3.4 3.3-7.8 5.7-4.4 2.4-9.6 3.8-5.2 1.3-11 1.3z" fill="#333" />
  <path d="M420 250H250V70h30v150h140z" fill="#fff" />
  <path d="M420 250H250V70h30v150h140z" fill="#fff" />
  <path d="M420 250H250V70h30v150h140z" fill="#fff" />
</svg>
